<svg width="136" height="56" viewBox="0 0 136 56" fill="none" xmlns="http://www.w3.org/2000/svg">
<circle cx="4" cy="4" r="2" fill="#DDD7D2"/>
<circle cx="12" cy="4" r="2" fill="#DDD7D2"/>
<circle cx="20" cy="4" r="2" fill="#DDD7D2"/>
<circle cx="28" cy="4" r="2" fill="#DDD7D2"/>
<circle cx="36" cy="4" r="2" fill="#DDD7D2"/>
<circle cx="44" cy="4" r="2" fill="#DDD7D2"/>
<circle cx="52" cy="4" r="2" fill="#DDD7D2"/>
<circle cx="60" cy="4" r="2" fill="#DDD7D2"/>
<circle cx="68" cy="4" r="2" fill="#DDD7D2"/>
<circle cx="76" cy="4" r="2" fill="#DDD7D2"/>
<circle cx="84" cy="4" r="2" fill="#DDD7D2"/>
<circle cx="92" cy="4" r="2" fill="#DDD7D2"/>
<circle cx="100" cy="4" r="2" fill="#DDD7D2"/>
<circle cx="108" cy="4" r="2" fill="#DDD7D2"/>
<circle cx="116" cy="4" r="2" fill="#DDD7D2"/>
<circle cx="124" cy="4" r="2" fill="#DDD7D2"/>
<circle cx="132" cy="4" r="2" fill="#DDD7D2"/>
<circle cx="4" cy="12" r="2" fill="#DDD7D2"/>
<circle cx="12" cy="12" r="2" fill="#DDD7D2"/>
<circle cx="20" cy="12" r="2" fill="#DDD7D2"/>
<circle cx="28" cy="12" r="2" fill="#DDD7D2"/>
<circle cx="36" cy="12" r="2" fill="#DDD7D2"/>
<circle cx="44" cy="12" r="2" fill="#DDD7D2"/>
<circle cx="52" cy="12" r="2" fill="#DDD7D2"/>
<circle cx="60" cy="12" r="2" fill="#DDD7D2"/>
<circle cx="68" cy="12" r="2" fill="#DDD7D2"/>
<circle cx="76" cy="12" r="2" fill="#DDD7D2"/>
<circle cx="84" cy="12" r="2" fill="#DDD7D2"/>
<circle cx="92" cy="12" r="2" fill="#DDD7D2"/>
<circle cx="100" cy="12" r="2" fill="#DDD7D2"/>
<circle cx="108" cy="12" r="2" fill="#DDD7D2"/>
<circle cx="116" cy="12" r="2" fill="#DDD7D2"/>
<circle cx="124" cy="12" r="2" fill="#DDD7D2"/>
<circle cx="132" cy="12" r="2" fill="#DDD7D2"/>
<circle cx="4" cy="20" r="2" fill="#DDD7D2"/>
<circle cx="12" cy="20" r="2" fill="#DDD7D2"/>
<circle cx="20" cy="20" r="2" fill="#DDD7D2"/>
<circle cx="28" cy="20" r="2" fill="#DDD7D2"/>
<circle cx="36" cy="20" r="2" fill="#DDD7D2"/>
<circle cx="44" cy="20" r="2" fill="#DDD7D2"/>
<circle cx="52" cy="20" r="2" fill="#DDD7D2"/>
<circle cx="60" cy="20" r="2" fill="#DDD7D2"/>
<circle cx="68" cy="20" r="2" fill="#DDD7D2"/>
<circle cx="76" cy="20" r="2" fill="#DDD7D2"/>
<circle cx="84" cy="20" r="2" fill="#DDD7D2"/>
<circle cx="92" cy="20" r="2" fill="#DDD7D2"/>
<circle cx="100" cy="20" r="2" fill="#DDD7D2"/>
<circle cx="108" cy="20" r="2" fill="#DDD7D2"/>
<circle cx="116" cy="20" r="2" fill="#DDD7D2"/>
<circle cx="124" cy="20" r="2" fill="#DDD7D2"/>
<circle cx="132" cy="20" r="2" fill="#DDD7D2"/>
<circle cx="4" cy="28" r="2" fill="#DDD7D2"/>
<circle cx="12" cy="28" r="2" fill="#DDD7D2"/>
<circle cx="20" cy="28" r="2" fill="#DDD7D2"/>
<circle cx="28" cy="28" r="2" fill="#DDD7D2"/>
<circle cx="36" cy="28" r="2" fill="#DDD7D2"/>
<circle cx="44" cy="28" r="2" fill="#DDD7D2"/>
<circle cx="52" cy="28" r="2" fill="#DDD7D2"/>
<circle cx="60" cy="28" r="2" fill="#DDD7D2"/>
<circle cx="68" cy="28" r="2" fill="#DDD7D2"/>
<circle cx="76" cy="28" r="2" fill="#DDD7D2"/>
<circle cx="84" cy="28" r="2" fill="#DDD7D2"/>
<circle cx="92" cy="28" r="2" fill="#DDD7D2"/>
<circle cx="100" cy="28" r="2" fill="#DDD7D2"/>
<circle cx="108" cy="28" r="2" fill="#DDD7D2"/>
<circle cx="116" cy="28" r="2" fill="#DDD7D2"/>
<circle cx="124" cy="28" r="2" fill="#DDD7D2"/>
<circle cx="132" cy="28" r="2" fill="#DDD7D2"/>
<circle cx="4" cy="36" r="2" fill="#DDD7D2"/>
<circle cx="12" cy="36" r="2" fill="#DDD7D2"/>
<circle cx="20" cy="36" r="2" fill="#DDD7D2"/>
<circle cx="28" cy="36" r="2" fill="#DDD7D2"/>
<circle cx="36" cy="36" r="2" fill="#DDD7D2"/>
<circle cx="44" cy="36" r="2" fill="#DDD7D2"/>
<circle cx="52" cy="36" r="2" fill="#DDD7D2"/>
<circle cx="60" cy="36" r="2" fill="#DDD7D2"/>
<circle cx="68" cy="36" r="2" fill="#DDD7D2"/>
<circle cx="76" cy="36" r="2" fill="#DDD7D2"/>
<circle cx="84" cy="36" r="2" fill="#DDD7D2"/>
<circle cx="92" cy="36" r="2" fill="#DDD7D2"/>
<circle cx="100" cy="36" r="2" fill="#DDD7D2"/>
<circle cx="108" cy="36" r="2" fill="#DDD7D2"/>
<circle cx="116" cy="36" r="2" fill="#DDD7D2"/>
<circle cx="124" cy="36" r="2" fill="#DDD7D2"/>
<circle cx="132" cy="36" r="2" fill="#DDD7D2"/>
<circle cx="4" cy="44" r="2" fill="#DDD7D2"/>
<circle cx="12" cy="44" r="2" fill="#DDD7D2"/>
<circle cx="20" cy="44" r="2" fill="#DDD7D2"/>
<circle cx="28" cy="44" r="2" fill="#DDD7D2"/>
<circle cx="36" cy="44" r="2" fill="#DDD7D2"/>
<circle cx="44" cy="44" r="2" fill="#DDD7D2"/>
<circle cx="52" cy="44" r="2" fill="#DDD7D2"/>
<circle cx="60" cy="44" r="2" fill="#DDD7D2"/>
<circle cx="68" cy="44" r="2" fill="#DDD7D2"/>
<circle cx="76" cy="44" r="2" fill="#DDD7D2"/>
<circle cx="84" cy="44" r="2" fill="#DDD7D2"/>
<circle cx="92" cy="44" r="2" fill="#DDD7D2"/>
<circle cx="100" cy="44" r="2" fill="#DDD7D2"/>
<circle cx="108" cy="44" r="2" fill="#DDD7D2"/>
<circle cx="116" cy="44" r="2" fill="#DDD7D2"/>
<circle cx="124" cy="44" r="2" fill="#DDD7D2"/>
<circle cx="132" cy="44" r="2" fill="#DDD7D2"/>
<circle cx="4" cy="52" r="2" fill="#DDD7D2"/>
<circle cx="12" cy="52" r="2" fill="#DDD7D2"/>
<circle cx="20" cy="52" r="2" fill="#DDD7D2"/>
<circle cx="28" cy="52" r="2" fill="#DDD7D2"/>
<circle cx="36" cy="52" r="2" fill="#DDD7D2"/>
<circle cx="44" cy="52" r="2" fill="#DDD7D2"/>
<circle cx="52" cy="52" r="2" fill="#DDD7D2"/>
<circle cx="60" cy="52" r="2" fill="#DDD7D2"/>
<circle cx="68" cy="52" r="2" fill="#DDD7D2"/>
<circle cx="76" cy="52" r="2" fill="#DDD7D2"/>
<circle cx="84" cy="52" r="2" fill="#DDD7D2"/>
<circle cx="92" cy="52" r="2" fill="#DDD7D2"/>
<circle cx="100" cy="52" r="2" fill="#DDD7D2"/>
<circle cx="108" cy="52" r="2" fill="#DDD7D2"/>
<circle cx="116" cy="52" r="2" fill="#DDD7D2"/>
<circle cx="124" cy="52" r="2" fill="#DDD7D2"/>
<circle cx="132" cy="52" r="2" fill="#DDD7D2"/>
</svg>
