<svg width="204" height="182" viewBox="0 0 204 182" fill="none" xmlns="http://www.w3.org/2000/svg">
<path d="M187.924 82.9453C187.924 38.8822 149.294 3.51486 102.094 3.51486C54.8945 3.51486 16.2643 38.8822 16.2643 82.9453C16.2643 127.009 54.8945 162.376 102.094 162.376C149.294 162.376 187.924 127.009 187.924 82.9453Z" fill="#80C75E" stroke="#612A05" stroke-width="5.27849"/>
<path fill-rule="evenodd" clip-rule="evenodd" d="M176.934 49.2188C163.439 23.6318 134.997 5.99927 102.094 5.99927C56.1492 5.99927 18.9036 40.3799 18.9036 82.7905C18.9036 99.505 24.6887 114.972 34.5115 127.579C29.1623 117.437 26.1613 106.046 26.1613 94.0075C26.1613 51.5968 63.407 17.2162 109.352 17.2162C137.189 17.2162 161.833 29.8374 176.934 49.2188Z" fill="#BBE8A5"/>
<path d="M102.04 146.54C134.063 146.54 160.103 121.474 160.103 90.4562C160.103 59.4381 134.063 34.3723 102.04 34.3723C70.0167 34.3723 43.9763 59.4381 43.9763 90.4562C43.9763 121.474 70.0167 146.54 102.04 146.54Z" fill="#FFBDA7" stroke="#612A05" stroke-width="2.63924"/>
<path fill-rule="evenodd" clip-rule="evenodd" d="M158.327 96.9085C158.582 94.801 158.713 92.6569 158.713 90.4834C158.713 60.2229 133.324 35.6919 102.004 35.6919C70.6852 35.6919 45.2959 60.2229 45.2959 90.4834C45.2959 92.6569 45.4269 94.801 45.6817 96.9085C48.9739 69.6755 72.9348 48.5421 102.004 48.5421C131.074 48.5421 155.035 69.6755 158.327 96.9085Z" fill="#D76D4E"/>
<ellipse cx="14.1266" cy="10.9008" rx="14.1266" ry="10.9008" transform="matrix(0.999917 0.0129052 -0.0128561 0.999917 120.326 101.673)" fill="#FFA6A6"/>
<ellipse cx="14.1266" cy="10.9008" rx="14.1266" ry="10.9008" transform="matrix(0.999916 0.0129216 -0.0128398 0.999918 56.1327 101.673)" fill="#FFA6A6"/>
<rect x="89.3147" y="79.2394" width="25.7055" height="7.55798" rx="3.69077" fill="#FF8430" stroke="#610505" stroke-width="1.31962"/>
<mask id="path-8-inside-1_3549_24243" fill="white">
<path fill-rule="evenodd" clip-rule="evenodd" d="M138.801 111.57C154.47 111.57 167.173 98.8679 167.173 83.1985C167.173 67.5292 154.47 54.8267 138.801 54.8267C123.131 54.8267 110.429 67.5292 110.429 83.1985C110.429 98.8679 123.131 111.57 138.801 111.57ZM138.801 104.973C150.826 104.973 160.575 95.2243 160.575 83.1989C160.575 71.1736 150.826 61.4252 138.801 61.4252C126.775 61.4252 117.027 71.1736 117.027 83.1989C117.027 95.2243 126.775 104.973 138.801 104.973Z"/>
</mask>
<path fill-rule="evenodd" clip-rule="evenodd" d="M138.801 111.57C154.47 111.57 167.173 98.8679 167.173 83.1985C167.173 67.5292 154.47 54.8267 138.801 54.8267C123.131 54.8267 110.429 67.5292 110.429 83.1985C110.429 98.8679 123.131 111.57 138.801 111.57ZM138.801 104.973C150.826 104.973 160.575 95.2243 160.575 83.1989C160.575 71.1736 150.826 61.4252 138.801 61.4252C126.775 61.4252 117.027 71.1736 117.027 83.1989C117.027 95.2243 126.775 104.973 138.801 104.973Z" fill="#FF8430"/>
<path d="M165.853 83.1985C165.853 98.1391 153.741 110.251 138.801 110.251V112.89C155.199 112.89 168.492 99.5967 168.492 83.1985H165.853ZM138.801 56.1463C153.741 56.1463 165.853 68.258 165.853 83.1985H168.492C168.492 66.8004 155.199 53.507 138.801 53.507V56.1463ZM111.748 83.1985C111.748 68.258 123.86 56.1463 138.801 56.1463V53.507C122.403 53.507 109.109 66.8004 109.109 83.1985H111.748ZM138.801 110.251C123.86 110.251 111.748 98.1391 111.748 83.1985H109.109C109.109 99.5967 122.403 112.89 138.801 112.89V110.251ZM159.255 83.1989C159.255 94.4954 150.097 103.653 138.801 103.653V106.292C151.555 106.292 161.894 95.9531 161.894 83.1989H159.255ZM138.801 62.7448C150.097 62.7448 159.255 71.9024 159.255 83.1989H161.894C161.894 70.4448 151.555 60.1056 138.801 60.1056V62.7448ZM118.347 83.1989C118.347 71.9024 127.504 62.7448 138.801 62.7448V60.1056C126.047 60.1056 115.707 70.4448 115.707 83.1989H118.347ZM138.801 103.653C127.504 103.653 118.347 94.4954 118.347 83.1989H115.707C115.707 95.9531 126.047 106.292 138.801 106.292V103.653Z" fill="#610505" mask="url(#path-8-inside-1_3549_24243)"/>
<mask id="path-10-inside-2_3549_24243" fill="white">
<path fill-rule="evenodd" clip-rule="evenodd" d="M65.5616 111.57C81.2309 111.57 93.9334 98.8679 93.9334 83.1985C93.9334 67.5292 81.2309 54.8267 65.5616 54.8267C49.8922 54.8267 37.1897 67.5292 37.1897 83.1985C37.1897 98.8679 49.8922 111.57 65.5616 111.57ZM65.5616 104.973C77.5869 104.973 87.3354 95.2243 87.3354 83.1989C87.3354 71.1736 77.5869 61.4252 65.5616 61.4252C53.5363 61.4252 43.7879 71.1736 43.7879 83.1989C43.7879 95.2243 53.5363 104.973 65.5616 104.973Z"/>
</mask>
<path fill-rule="evenodd" clip-rule="evenodd" d="M65.5616 111.57C81.2309 111.57 93.9334 98.8679 93.9334 83.1985C93.9334 67.5292 81.2309 54.8267 65.5616 54.8267C49.8922 54.8267 37.1897 67.5292 37.1897 83.1985C37.1897 98.8679 49.8922 111.57 65.5616 111.57ZM65.5616 104.973C77.5869 104.973 87.3354 95.2243 87.3354 83.1989C87.3354 71.1736 77.5869 61.4252 65.5616 61.4252C53.5363 61.4252 43.7879 71.1736 43.7879 83.1989C43.7879 95.2243 53.5363 104.973 65.5616 104.973Z" fill="#FF8430"/>
<path d="M92.6138 83.1985C92.6138 98.1391 80.5021 110.251 65.5616 110.251V112.89C81.9597 112.89 95.2531 99.5967 95.2531 83.1985H92.6138ZM65.5616 56.1463C80.5021 56.1463 92.6138 68.258 92.6138 83.1985H95.2531C95.2531 66.8004 81.9597 53.507 65.5616 53.507V56.1463ZM38.5093 83.1985C38.5093 68.258 50.621 56.1463 65.5616 56.1463V53.507C49.1634 53.507 35.8701 66.8004 35.8701 83.1985H38.5093ZM65.5616 110.251C50.621 110.251 38.5093 98.1391 38.5093 83.1985H35.8701C35.8701 99.5967 49.1634 112.89 65.5616 112.89V110.251ZM86.0158 83.1989C86.0158 94.4954 76.8581 103.653 65.5616 103.653V106.292C78.3157 106.292 88.655 95.9531 88.655 83.1989H86.0158ZM65.5616 62.7448C76.8581 62.7448 86.0158 71.9024 86.0158 83.1989H88.655C88.655 70.4448 78.3157 60.1056 65.5616 60.1056V62.7448ZM45.1075 83.1989C45.1075 71.9024 54.2651 62.7448 65.5616 62.7448V60.1056C52.8075 60.1056 42.4682 70.4448 42.4682 83.1989H45.1075ZM65.5616 103.653C54.2651 103.653 45.1075 94.4954 45.1075 83.1989H42.4682C42.4682 95.9531 52.8075 106.292 65.5616 106.292V103.653Z" fill="#610505" mask="url(#path-10-inside-2_3549_24243)"/>
<path d="M123.029 82.2545L151.22 71.9939M123.147 82.0779L151.338 92.3386" stroke="#610505" stroke-width="6" stroke-linecap="round"/>
<path d="M81.4221 82.2545L53.2313 71.9939M81.3041 82.0779L53.1133 92.3386" stroke="#610505" stroke-width="6" stroke-linecap="round"/>
<line x1="73.0963" y1="118.153" x2="79.3732" y2="107.282" stroke="#FC5252" stroke-width="1.31962"/>
<line x1="65.1787" y1="118.153" x2="71.4556" y2="107.282" stroke="#FC5252" stroke-width="1.31962"/>
<line x1="57.261" y1="118.153" x2="63.5379" y2="107.282" stroke="#FC5252" stroke-width="1.31962"/>
<line x1="139.737" y1="118.153" x2="146.014" y2="107.282" stroke="#FC5252" stroke-width="1.31962"/>
<line x1="131.82" y1="118.153" x2="138.096" y2="107.282" stroke="#FC5252" stroke-width="1.31962"/>
<line x1="123.902" y1="118.153" x2="130.179" y2="107.282" stroke="#FC5252" stroke-width="1.31962"/>
<path d="M88.8435 114.53C90.3203 116.157 93.2739 119.412 102.135 119.412C110.995 119.412 113.949 116.157 115.426 114.53" stroke="#610505" stroke-width="5.2207" stroke-linecap="round"/>
<path d="M112.462 112C114.671 112 116.489 113.912 115.285 115.764C114.488 116.99 113.302 118.117 111.775 119.071C108.775 120.946 104.705 122 100.462 122C96.2182 122 92.1485 120.946 89.148 119.071C87.6217 118.117 86.4356 116.99 85.6385 115.764C84.4344 113.912 86.2525 112 88.4617 112L100.462 112H112.462Z" fill="#610505"/>
<path d="M156 31.7144C150.95 35.1429 148 40.3792 148 44.2858C148 49.3352 152.093 52.2858 156 52.2858C159.906 52.2858 164 49.3352 164 44.2858C164 40.3792 161.049 35.1429 156 31.7144Z" stroke="#610505" stroke-width="4" stroke-linecap="round" stroke-linejoin="round"/>
<path d="M10.2845 134.672L2.43152 132.991L32.9262 165.343L96.4423 177.794L90.1998 151.775L102.237 151.439C95.5737 138.616 72.0991 113.006 31.506 113.145L35.4708 125.604C26.5387 124.847 19.0672 125.187 14.0579 125.953L10.2845 134.672Z" fill="#E6F9FF"/>
<path d="M2.43152 132.991L2.84576 131.056C1.99856 130.874 1.1319 131.265 0.706774 132.02C0.281646 132.775 0.396856 133.718 0.99112 134.349L2.43152 132.991ZM14.0579 125.953L13.7584 123.997C13.085 124.1 12.512 124.542 12.2414 125.167L14.0579 125.953ZM102.237 151.439L102.292 153.417L105.45 153.329L103.993 150.526L102.237 151.439ZM31.506 113.145L31.4992 111.165C30.8689 111.167 30.2773 111.47 29.9062 111.979C29.535 112.488 29.4287 113.144 29.6198 113.745L31.506 113.145ZM35.4708 125.604L35.3036 127.576L35.3036 127.576L35.4708 125.604ZM32.9262 165.343L31.4858 166.701C31.7693 167.001 32.1398 167.206 32.5454 167.285L32.9262 165.343ZM96.4423 177.794L96.0615 179.736L99.0862 180.329L98.3671 177.332L96.4423 177.794ZM51.4766 130.008C52.5452 130.239 53.5985 129.559 53.8292 128.491C54.0599 127.422 53.3807 126.369 52.3121 126.138L51.4766 130.008ZM66.0435 129.882C65.0058 129.538 63.8857 130.1 63.5416 131.138C63.1976 132.176 63.7598 133.296 64.7975 133.64L66.0435 129.882ZM90.614 149.839L10.6987 132.736L9.87023 136.607L89.7855 153.71L90.614 149.839ZM10.6987 132.736L2.84576 131.056L2.01727 134.927L9.87023 136.607L10.6987 132.736ZM12.1011 135.458L15.8745 126.74L12.2414 125.167L8.46789 133.886L12.1011 135.458ZM102.182 149.46L90.1445 149.796L90.255 153.753L102.292 153.417L102.182 149.46ZM103.993 150.526C97.0656 137.194 72.9871 111.023 31.4992 111.165L31.5128 115.124C71.211 114.988 94.0817 140.038 100.48 152.352L103.993 150.526ZM14.3575 127.91C19.1876 127.171 26.5 126.83 35.3036 127.576L35.638 123.632C26.5773 122.864 18.9468 123.203 13.7584 123.997L14.3575 127.91ZM29.6198 113.745L33.5845 126.204L37.357 125.004L33.3923 112.544L29.6198 113.745ZM0.99112 134.349L31.4858 166.701L34.3666 163.985L3.87192 131.633L0.99112 134.349ZM32.5454 167.285L96.0615 179.736L96.8231 175.851L33.307 163.4L32.5454 167.285ZM98.3671 177.332L92.1246 151.313L88.2749 152.237L94.5175 178.256L98.3671 177.332ZM35.3036 127.576C40.2893 127.999 45.7408 128.769 51.4766 130.008L52.3121 126.138C46.4028 124.862 40.7835 124.068 35.638 123.632L35.3036 127.576ZM64.7975 133.64C76.7677 137.609 89.2987 143.753 101.011 152.993L103.463 149.885C91.3403 140.321 78.3866 133.975 66.0435 129.882L64.7975 133.64Z" fill="#612A05"/>
<path d="M89.7682 151.92L96.0108 177.939L32.4947 165.488L2 133.136L89.7682 151.92Z" fill="#612A05"/>
<path d="M89.7682 151.92L91.693 151.458C91.5152 150.717 90.9277 150.144 90.1825 149.984L89.7682 151.92ZM2 133.136L2.41425 131.201C1.56705 131.02 0.700384 131.41 0.275256 132.165C-0.149872 132.92 -0.0346626 133.864 0.559602 134.494L2 133.136ZM32.4947 165.488L31.0543 166.846L31.4902 167.308L32.1139 167.431L32.4947 165.488ZM96.0108 177.939L95.63 179.882L98.6547 180.474L97.9356 177.477L96.0108 177.939ZM0.559602 134.494L31.0543 166.846L33.9351 164.13L3.4404 131.779L0.559602 134.494ZM32.1139 167.431L95.63 179.882L96.3916 175.997L32.8754 163.546L32.1139 167.431ZM97.9356 177.477L91.693 151.458L87.8434 152.382L94.086 178.401L97.9356 177.477ZM90.1825 149.984L2.41425 131.201L1.58575 135.072L89.354 153.856L90.1825 149.984Z" fill="#612A05"/>
<path d="M193.716 134.672L201.569 132.991L171.074 165.343L107.558 177.794L113.801 151.775L101.763 151.439C108.427 138.616 131.901 113.006 172.494 113.145L168.529 125.604C177.462 124.847 184.933 125.187 189.942 125.953L193.716 134.672Z" fill="#E6F9FF"/>
<path d="M201.569 132.991L203.009 134.349C203.603 133.718 203.719 132.775 203.294 132.02C202.868 131.265 202.002 130.874 201.155 131.056L201.569 132.991ZM189.942 125.953L191.759 125.167C191.488 124.542 190.915 124.1 190.242 123.997L189.942 125.953ZM101.763 151.439L100.007 150.526L98.5503 153.329L101.708 153.417L101.763 151.439ZM172.494 113.145L174.38 113.745C174.572 113.144 174.465 112.488 174.094 111.979C173.723 111.47 173.131 111.167 172.501 111.165L172.494 113.145ZM168.529 125.604L168.697 127.576L168.697 127.576L168.529 125.604ZM171.074 165.343L171.455 167.285C171.86 167.206 172.231 167.001 172.515 166.701L171.074 165.343ZM107.558 177.794L105.633 177.332L104.914 180.329L107.939 179.736L107.558 177.794ZM114.215 153.71L194.13 136.607L193.302 132.736L113.386 149.839L114.215 153.71ZM194.13 136.607L201.983 134.927L201.155 131.056L193.302 132.736L194.13 136.607ZM195.532 133.886L191.759 125.167L188.126 126.74L191.899 135.458L195.532 133.886ZM101.708 153.417L113.745 153.753L113.856 149.796L101.819 149.46L101.708 153.417ZM103.52 152.352C109.919 140.038 132.789 114.988 172.487 115.124L172.501 111.165C131.013 111.023 106.935 137.194 100.007 150.526L103.52 152.352ZM190.242 123.997C185.053 123.203 177.423 122.864 168.362 123.632L168.697 127.576C177.5 126.83 184.813 127.171 189.643 127.91L190.242 123.997ZM168.362 123.632C149.208 125.256 123.395 131.851 100.537 149.885L102.989 152.993C125.082 135.564 150.088 129.154 168.697 127.576L168.362 123.632ZM170.608 112.544L166.643 125.004L170.416 126.204L174.38 113.745L170.608 112.544ZM200.128 131.633L169.634 163.985L172.515 166.701L203.009 134.349L200.128 131.633ZM170.693 163.4L107.177 175.851L107.939 179.736L171.455 167.285L170.693 163.4ZM109.483 178.256L115.725 152.237L111.876 151.313L105.633 177.332L109.483 178.256Z" fill="#612A05"/>
<path d="M114.232 151.92L107.989 177.939L171.506 165.488L202 133.136L114.232 151.92Z" fill="#612A05"/>
<path d="M114.232 151.92L113.818 149.984C113.072 150.144 112.485 150.717 112.307 151.458L114.232 151.92ZM202 133.136L203.441 134.494C204.035 133.864 204.15 132.92 203.725 132.165C203.3 131.41 202.433 131.02 201.586 131.201L202 133.136ZM171.506 165.488L171.886 167.431L172.51 167.308L172.946 166.846L171.506 165.488ZM107.989 177.939L106.065 177.477L105.345 180.474L108.37 179.882L107.989 177.939ZM200.56 131.779L170.065 164.13L172.946 166.846L203.441 134.494L200.56 131.779ZM171.125 163.546L107.609 175.997L108.37 179.882L171.886 167.431L171.125 163.546ZM109.914 178.401L116.157 152.382L112.307 151.458L106.065 177.477L109.914 178.401ZM114.646 153.856L202.414 135.072L201.586 131.201L113.818 149.984L114.646 153.856Z" fill="#612A05"/>
<path d="M87.921 150.868L101.244 150.498H102.292L115.615 150.868L108.705 179.53H94.8304L87.921 150.868Z" fill="#612A05"/>
<path d="M101.244 150.498V148.519H101.216L101.189 148.52L101.244 150.498ZM87.921 150.868L87.866 148.89C87.2693 148.906 86.7119 149.191 86.3491 149.665C85.9863 150.139 85.8568 150.752 85.9967 151.332L87.921 150.868ZM94.8304 179.53L92.9061 179.994C93.1204 180.883 93.9159 181.509 94.8304 181.509V179.53ZM102.292 150.498L102.347 148.52L102.319 148.519H102.292V150.498ZM115.615 150.868L117.539 151.332C117.679 150.752 117.549 150.139 117.186 149.665C116.824 149.191 116.266 148.906 115.67 148.89L115.615 150.868ZM108.705 179.53V181.509C109.62 181.509 110.415 180.883 110.63 179.994L108.705 179.53ZM101.189 148.52L87.866 148.89L87.976 152.847L101.299 152.477L101.189 148.52ZM96.7547 179.066L89.8453 150.405L85.9967 151.332L92.9061 179.994L96.7547 179.066ZM102.237 152.477L115.56 152.847L115.67 148.89L102.347 148.52L102.237 152.477ZM110.63 179.994L117.539 151.332L113.69 150.405L106.781 179.066L110.63 179.994ZM101.244 152.478H102.292V148.519H101.244V152.478ZM94.8304 181.509H108.705V177.551H94.8304V181.509Z" fill="#4F2204"/>
<path d="M92.8917 160.066H92.4635L92.5727 160.48L93.7912 165.099L93.856 165.345H94.1102H110.442H110.7L110.762 165.095L111.919 160.476L112.021 160.066H111.599H92.8917Z" fill="#FFBC11" stroke="#4F2204" stroke-width="0.659811"/>
<path d="M95.7319 173.262H95.2353L95.4278 173.719L96.2604 175.699L96.3453 175.901H96.5645H107.723H107.947L108.03 175.693L108.82 173.714L109 173.262H108.514H95.7319Z" fill="#FFBC11" stroke="#4F2204" stroke-width="0.659811"/>
</svg>
